<svg width="981" height="596" viewBox="0 0 981 596" fill="none" xmlns="http://www.w3.org/2000/svg">
<g opacity="0.5">
<path opacity="0.6" d="M554.77 156.177L579.95 162.936C583.009 163.759 584.718 161.559 583.771 158.02L577.283 133.738C576.337 130.211 573.093 126.684 570.033 125.861L544.853 119.102C541.793 118.279 540.085 120.478 541.031 124.017L547.52 148.3C548.466 151.827 551.71 155.353 554.77 156.177Z" fill="#0C0F38"/>
<path d="M585.283 168.515C584.767 168.515 584.227 168.441 583.661 168.281L552.94 160.035C549.044 158.991 544.903 154.506 543.711 150.032L535.797 120.405C535.133 117.947 535.465 115.833 536.694 114.604C537.739 113.56 539.312 113.253 541.13 113.744L571.852 121.99C575.747 123.034 579.889 127.52 581.081 131.993L588.995 161.621C589.658 164.078 589.326 166.192 588.098 167.421C587.385 168.134 586.414 168.502 585.271 168.502L585.283 168.515ZM539.52 114.629C538.685 114.629 537.972 114.887 537.468 115.391C536.522 116.337 536.301 118.07 536.854 120.134L544.768 149.762C545.874 153.891 549.671 158.032 553.222 158.991L583.932 167.237C585.357 167.618 586.561 167.409 587.311 166.659C588.257 165.713 588.478 163.98 587.925 161.916L580.012 132.288C578.906 128.159 575.108 124.017 571.557 123.071L540.835 114.825C540.368 114.703 539.914 114.641 539.508 114.641L539.52 114.629Z" fill="url(#paint0_linear_1_371)"/>
<path d="M559.404 101.934L572.934 115.464L578.844 117.062C581.904 117.885 585.148 121.412 586.095 124.939L587.655 130.813L601.173 144.33L592.092 153.412C591.391 154.223 590.236 154.53 588.761 154.137L563.582 147.378C560.522 146.554 557.278 143.028 556.332 139.501L549.843 115.218C549.352 113.387 549.585 111.913 550.347 111.04L559.428 101.947L559.404 101.934Z" fill="url(#paint1_linear_1_371)"/>
<path d="M550.458 114.58L556.946 138.862C557.893 142.389 561.137 145.916 564.197 146.739L589.376 153.498C590.851 153.891 591.994 153.584 592.706 152.773L592.08 153.399C591.379 154.211 590.224 154.518 588.749 154.124L563.57 147.366C560.51 146.542 557.266 143.016 556.32 139.489L549.831 115.206C549.34 113.375 549.573 111.901 550.335 111.028L550.962 110.389C550.2 111.274 549.966 112.749 550.458 114.58Z" fill="url(#paint2_linear_1_371)"/>
<path d="M590.592 153.178L599.673 144.109L586.156 130.592L584.595 124.718C583.649 121.191 580.405 117.664 577.345 116.841L571.434 115.243L558.764 102.574L559.391 101.947L572.921 115.477L578.832 117.074C581.892 117.897 585.136 121.424 586.082 124.951L587.643 130.825L601.16 144.343L592.079 153.424C591.378 154.235 590.223 154.542 588.749 154.149L588.503 154.088C589.388 154.088 590.1 153.768 590.592 153.203V153.178Z" fill="#D3088B"/>
<path d="M572.651 138.297L597.831 145.055C600.891 145.879 602.599 143.679 601.652 140.14L595.164 115.858C594.218 112.331 590.974 108.804 587.914 107.981L562.734 101.222C559.674 100.398 557.966 102.598 558.913 106.137L565.401 130.42C566.347 133.946 569.591 137.473 572.651 138.297Z" fill="url(#paint3_linear_1_371)"/>
<path d="M562.734 101.222L587.914 107.98C589.499 108.411 591.133 109.553 592.473 111.065C591.379 110.094 590.163 109.369 588.983 109.05L563.803 102.291C560.743 101.467 559.035 103.667 559.982 107.206L566.47 131.489C566.925 133.197 567.92 134.893 569.161 136.281C567.429 134.745 565.978 132.582 565.401 130.42L558.913 106.137C557.966 102.61 559.674 100.411 562.734 101.222Z" fill="#6EE7FB"/>
<path d="M571.422 137.068L596.601 143.826C599.661 144.65 601.369 142.45 600.423 138.911L593.935 114.629C593.48 112.957 592.509 111.274 591.292 109.897C593.074 111.446 594.561 113.646 595.151 115.857L601.64 140.14C602.586 143.667 600.878 145.866 597.818 145.055L572.638 138.297C571.028 137.866 569.382 136.687 568.03 135.151C569.099 136.072 570.267 136.76 571.422 137.068Z" fill="#D3088B"/>
</g>
<path d="M632.326 253.134C630.937 253.134 629.733 252.679 628.848 251.794C627.324 250.271 626.931 247.653 627.742 244.593L644.7 181.319C646.199 175.74 651.361 170.136 656.227 168.834L722.131 151.175C724.38 150.573 726.334 150.941 727.612 152.232C729.136 153.756 729.529 156.373 728.718 159.421L711.759 222.695C710.26 228.286 705.087 233.878 700.233 235.18L634.329 252.839C633.628 253.023 632.952 253.122 632.313 253.122L632.326 253.134ZM724.146 152.084C723.618 152.084 723.053 152.158 722.451 152.318L656.546 169.977C652.049 171.181 647.256 176.404 645.855 181.626L628.897 244.901C628.197 247.53 628.479 249.742 629.696 250.947C630.667 251.917 632.203 252.175 634.034 251.696L699.938 234.037C704.435 232.833 709.228 227.61 710.629 222.388L727.587 159.113C728.288 156.484 728.005 154.272 726.788 153.067C726.137 152.416 725.228 152.084 724.146 152.084Z" fill="url(#paint4_linear_1_371)"/>
<path d="M699.213 139.501L681.628 157.086L650.747 165.356C646.765 166.425 642.55 171.009 641.321 175.605L633.346 205.38L615.761 222.965L627.57 234.775C628.48 235.832 629.979 236.225 631.896 235.721L687.846 220.729C691.828 219.66 696.043 215.076 697.271 210.48L711.661 156.766C712.3 154.382 712.006 152.465 711.01 151.322H711.022L699.213 139.501Z" fill="url(#paint5_linear_1_371)"/>
<path d="M710.839 155.943L696.449 209.657C695.22 214.253 690.992 218.836 687.023 219.905L631.073 234.898C629.156 235.414 627.657 235.008 626.747 233.951L627.558 234.775C628.468 235.831 629.967 236.225 631.884 235.721L687.834 220.729C691.816 219.66 696.031 215.076 697.26 210.48L711.65 156.766C712.289 154.382 711.994 152.465 710.998 151.322H711.011L710.2 150.499H710.187C711.17 151.654 711.478 153.571 710.839 155.955V155.943Z" fill="url(#paint6_linear_1_371)"/>
<path d="M629.475 234.467L617.666 222.67L635.251 205.085L643.226 175.31C644.455 170.714 648.682 166.13 652.651 165.061L683.533 156.791L700.012 140.312L699.201 139.501L681.616 157.086L650.734 165.356C646.753 166.425 642.538 171.009 641.309 175.605L633.334 205.38L615.749 222.965L627.558 234.775C628.467 235.832 629.967 236.225 631.884 235.721L632.203 235.635C631.048 235.635 630.126 235.217 629.487 234.48L629.475 234.467Z" fill="#D3088B"/>
<path d="M699.152 141.443L710.9 153.19H710.888C711.453 153.854 711.772 154.751 711.846 155.845C712.19 153.891 711.846 152.306 710.998 151.323H711.01L699.324 139.624C699.201 140.226 699.127 140.828 699.152 141.443Z" fill="#6EE7FB"/>
<path d="M676.024 208.919L620.074 223.912C616.092 224.981 613.868 222.117 615.097 217.522L629.487 163.808C630.716 159.212 634.943 154.628 638.912 153.559L694.862 138.567C698.844 137.498 701.068 140.361 699.839 144.957L685.449 198.671C684.22 203.267 679.993 207.85 676.024 208.919Z" fill="url(#paint7_linear_1_371)"/>
<path d="M694.875 138.567L638.925 153.559C636.861 154.112 634.747 155.611 633.002 157.565C634.427 156.299 636 155.366 637.536 154.948L693.487 139.956C697.468 138.886 699.693 141.75 698.464 146.346L684.074 200.059C683.484 202.271 682.193 204.483 680.571 206.302C682.832 204.299 684.713 201.485 685.462 198.671L699.852 144.957C701.081 140.361 698.857 137.51 694.875 138.567Z" fill="#6EE7FB"/>
<path d="M671.281 201.841L629.622 212.999C626.66 213.798 625.001 211.66 625.923 208.244L636.639 168.256C637.561 164.84 640.694 161.424 643.656 160.625L685.314 149.467C688.276 148.668 689.935 150.806 689.013 154.223L678.297 194.21C677.376 197.626 674.242 201.042 671.281 201.841Z" fill="url(#paint8_linear_1_371)"/>
<path d="M667.471 196.164L637.29 204.25C635.14 204.827 633.948 203.279 634.611 200.809L642.378 171.832C643.041 169.35 645.315 166.88 647.465 166.302L677.646 158.216C679.797 157.639 680.989 159.187 680.325 161.657L672.559 190.634C671.895 193.116 669.622 195.586 667.471 196.164Z" fill="#6DDFF5"/>
<path d="M677.61 207.322L621.659 222.314C617.678 223.383 615.453 220.52 616.682 215.924L631.072 162.21C631.662 160.035 632.916 157.86 634.501 156.053C632.178 158.057 630.249 160.932 629.475 163.808L615.085 217.521C613.856 222.117 616.08 224.968 620.062 223.911L676.012 208.919C678.101 208.354 680.252 206.818 682.009 204.827C680.62 206.031 679.096 206.929 677.597 207.322H677.61Z" fill="#D3088B"/>
<mask id="mask0_1_371" style="mask-type:luminance" maskUnits="userSpaceOnUse" x="634" y="158" width="47" height="47">
<path d="M667.471 196.164L637.29 204.25C635.14 204.827 633.948 203.279 634.611 200.809L642.378 171.832C643.041 169.35 645.315 166.88 647.465 166.302L677.646 158.216C679.797 157.639 680.989 159.187 680.325 161.657L672.559 190.634C671.895 193.116 669.622 195.586 667.471 196.164Z" fill="white"/>
</mask>
<g mask="url(#mask0_1_371)">
<path d="M636.098 202.308L643.864 173.319C644.528 170.837 646.801 168.367 648.952 167.789L679.145 159.703C679.624 159.58 680.042 159.568 680.411 159.642C680.116 158.438 679.108 157.823 677.646 158.216L647.453 166.302C645.302 166.88 643.029 169.35 642.365 171.832L634.599 200.821C634.082 202.75 634.709 204.102 636.012 204.336C635.877 203.77 635.877 203.107 636.098 202.32V202.308Z" fill="#267FE4"/>
<path d="M637.904 204.114L645.671 175.125C646.334 172.643 648.608 170.173 650.758 169.596L680.951 161.51C681.332 161.411 681.664 161.399 681.984 161.424C681.799 160.023 680.73 159.285 679.157 159.715L648.964 167.801C646.814 168.379 644.54 170.849 643.877 173.331L636.11 202.32C635.557 204.36 636.294 205.749 637.769 205.859C637.708 205.356 637.744 204.778 637.917 204.127L637.904 204.114Z" fill="#25BEEB"/>
<path d="M639.944 207.654C639.944 207.248 639.969 206.806 640.104 206.302L647.87 177.313C648.534 174.831 650.807 172.361 652.958 171.783L683.151 163.697C683.384 163.636 683.593 163.611 683.802 163.599C683.765 161.952 682.672 161.043 680.951 161.497L650.758 169.583C648.607 170.161 646.334 172.631 645.671 175.113L637.904 204.102C637.314 206.314 638.211 207.776 639.944 207.654Z" fill="#18CFF6"/>
</g>
<path d="M572.91 110.241C572.136 109.307 572.271 107.943 573.193 107.169C574.127 106.395 575.491 106.53 576.265 107.464C577.039 108.398 576.904 109.762 575.97 110.536C575.036 111.311 573.672 111.175 572.898 110.241H572.91Z" fill="#6EE7FB"/>
<path d="M561.359 91.1818C560.892 90.6165 560.966 89.7808 561.531 89.3139C562.096 88.8469 562.932 88.9206 563.399 89.4859C563.866 90.0512 563.792 90.8868 563.227 91.3538C562.662 91.8208 561.826 91.747 561.359 91.1818Z" fill="#6EE7FB"/>
<path d="M605.992 123.784C604.8 122.346 604.997 120.22 606.434 119.028C607.872 117.836 609.998 118.032 611.19 119.47C612.382 120.908 612.185 123.034 610.748 124.226C609.31 125.418 607.184 125.221 605.992 123.784Z" fill="#6EE7FB"/>
<path d="M614.139 123.366C613.697 122.837 613.77 122.039 614.311 121.596C614.852 121.154 615.638 121.228 616.081 121.768C616.523 122.297 616.449 123.095 615.909 123.538C615.38 123.98 614.581 123.906 614.139 123.366Z" fill="#6EE7FB"/>
<path d="M602.833 117.136C602.391 116.607 602.464 115.808 603.005 115.366C603.534 114.924 604.332 114.997 604.775 115.538C605.217 116.066 605.143 116.865 604.603 117.308C604.074 117.75 603.275 117.676 602.833 117.136Z" fill="#6EE7FB"/>
<path d="M587.301 108.779C586.465 107.759 586.6 106.26 587.62 105.412C588.64 104.576 590.139 104.712 590.987 105.732C591.835 106.751 591.688 108.251 590.668 109.099C589.648 109.934 588.149 109.799 587.301 108.779Z" fill="#6EE7FB"/>
<path d="M631.269 162.345C628.811 159.372 629.217 154.972 632.191 152.515C635.164 150.057 639.564 150.462 642.022 153.436C644.479 156.41 644.074 160.809 641.1 163.267C638.126 165.725 633.727 165.319 631.269 162.345Z" fill="#6EE7FB"/>
<path d="M627.496 142.991C626.452 141.725 626.624 139.857 627.89 138.813C629.155 137.768 631.023 137.94 632.068 139.206C633.112 140.472 632.94 142.339 631.675 143.384C630.409 144.428 628.541 144.256 627.496 142.991Z" fill="#6EE7FB"/>
<path d="M609.211 150.327C607.355 148.091 607.675 144.773 609.911 142.917C612.148 141.061 615.466 141.381 617.321 143.618C619.177 145.854 618.857 149.172 616.621 151.028C614.384 152.883 611.066 152.564 609.211 150.327Z" fill="#6EE7FB"/>
<mask id="mask1_1_371" style="mask-type:luminance" maskUnits="userSpaceOnUse" x="357" y="200" width="448" height="283">
<path d="M804.786 200.711H357.798V482.293H804.786V200.711Z" fill="white"/>
</mask>
<g mask="url(#mask1_1_371)">
<path opacity="0.6" d="M575.602 393.704L646.95 380.063C655.613 378.404 657.236 370.81 650.575 363.105L604.8 310.092C598.139 302.387 585.703 297.484 577.04 299.143L505.692 312.783C497.028 314.442 495.406 322.036 502.067 329.741L547.842 382.755C554.502 390.46 566.939 395.363 575.602 393.704Z" fill="#0C0F38"/>
<path d="M571.141 406.017C560.647 406.017 547.756 400.217 540.432 391.75L484.58 327.075C479.935 321.704 478.19 316.003 479.775 311.431C481.127 307.548 484.703 304.869 489.864 303.886L576.905 287.235C587.94 285.121 603.768 291.339 612.21 301.084L668.062 365.759C672.707 371.13 674.452 376.831 672.867 381.403C671.515 385.286 667.939 387.965 662.778 388.96L575.737 405.611C574.287 405.894 572.739 406.029 571.141 406.029V406.017ZM581.636 289.877C580.198 289.877 578.809 290 577.495 290.246L490.454 306.897C486.411 307.671 483.646 309.637 482.675 312.451C481.459 315.966 482.995 320.574 486.903 325.084L542.755 389.759C550.546 398.779 565.083 404.542 575.172 402.613L662.213 385.962C666.256 385.188 669.02 383.222 669.991 380.407C671.208 376.893 669.672 372.285 665.764 367.775L609.912 303.099C603.129 295.259 591.258 289.877 581.648 289.877H581.636Z" fill="url(#paint9_linear_1_371)"/>
<path d="M521.299 252.065L571.645 269.539L588.407 266.357C597.071 264.698 609.495 269.601 616.167 277.306L627.215 290.147L677.537 307.622L665.801 341.416H665.789C665.015 344.304 662.495 346.479 658.33 347.277L586.982 360.918C578.318 362.577 565.894 357.674 559.222 349.969L513.446 296.955C509.981 292.949 508.777 288.992 509.612 285.859H509.575L521.311 252.04L521.299 252.065Z" fill="url(#paint10_linear_1_371)"/>
<path d="M514.245 294.645L560.02 347.658C566.681 355.363 579.117 360.266 587.781 358.607L659.128 344.967C663.294 344.168 665.814 341.993 666.588 339.105H666.6L665.789 341.44H665.777C665.002 344.328 662.483 346.503 658.317 347.302L586.969 360.942C578.306 362.601 565.882 357.698 559.209 349.993L513.434 296.98C509.969 292.974 508.764 289.017 509.6 285.883H509.563L510.374 283.536H510.411C509.576 286.682 510.78 290.639 514.245 294.645Z" fill="url(#paint11_linear_1_371)"/>
<path d="M661.794 342.645H661.806L673.542 308.851L623.22 291.376L612.173 278.535C605.512 270.83 593.076 265.926 584.413 267.585L567.651 270.768L520.475 254.387L521.286 252.052L571.632 269.527L588.394 266.344C597.058 264.685 609.481 269.588 616.154 277.293L627.202 290.135L677.524 307.61L665.788 341.403H665.776C665.002 344.291 662.482 346.466 658.316 347.265L657.628 347.4C659.84 346.307 661.241 344.648 661.782 342.632L661.794 342.645Z" fill="#D3088B"/>
<path d="M598.705 327.136L670.053 313.496C678.716 311.837 680.338 304.242 673.678 296.537L627.902 243.524C621.242 235.819 608.806 230.916 600.142 232.575L528.794 246.215C520.131 247.874 518.509 255.469 525.169 263.174L570.944 316.187C577.605 323.892 590.041 328.795 598.705 327.136Z" fill="url(#paint12_linear_1_371)"/>
<g opacity="0.25">
<path d="M580.097 297.755C579.74 297.829 579.236 297.645 578.954 297.362L568.889 286.696C568.607 286.401 568.68 286.106 569.037 286.032L597.977 280.551C598.235 280.502 598.591 280.588 598.874 280.773C599.156 280.957 599.304 281.19 599.255 281.387L596.023 294.524C595.998 294.646 595.875 294.732 595.715 294.769L580.097 297.78V297.755Z" fill="black"/>
<path d="M627.174 305.571C626.83 305.632 626.351 305.473 626.105 305.19L602.917 279.261C602.794 279.113 602.732 278.966 602.769 278.843L606.554 263.63C606.591 263.495 606.702 263.409 606.874 263.384C606.96 263.372 607.058 263.372 607.156 263.384C607.476 263.421 607.808 263.593 608.004 263.826L641.454 302.179C641.7 302.462 641.614 302.732 641.282 302.806L627.187 305.583L627.174 305.571Z" fill="black"/>
<path d="M591.894 310.278C591.808 310.29 591.722 310.302 591.612 310.278C591.304 310.241 590.973 310.093 590.776 309.884L581.547 300.115C581.277 299.832 581.338 299.537 581.695 299.476L593.897 297.117C594.155 297.067 594.512 297.153 594.782 297.325C595.065 297.497 595.212 297.731 595.163 297.915L592.177 310.032C592.152 310.155 592.029 310.241 591.87 310.265L591.894 310.278Z" fill="black"/>
<path d="M567.366 284.25C566.997 284.324 566.481 284.127 566.198 283.832L554.401 271.335C554.106 271.028 554.18 270.72 554.549 270.659L602.597 261.762C602.868 261.713 603.224 261.799 603.507 261.995C603.789 262.18 603.949 262.438 603.9 262.634L600.14 277.885C600.103 278.008 599.992 278.094 599.82 278.13L567.378 284.263L567.366 284.25Z" fill="black"/>
<path d="M596.047 311.703C595.789 311.752 595.445 311.678 595.175 311.506C594.905 311.334 594.745 311.113 594.794 310.929L597.792 298.849C597.817 298.726 597.94 298.64 598.1 298.616C598.186 298.603 598.272 298.591 598.382 298.616C598.689 298.652 599.021 298.812 599.218 299.021L608.164 308.741C608.422 309.024 608.348 309.307 608.004 309.368L596.047 311.728V311.703Z" fill="black"/>
<path d="M617.614 307.463C617.455 307.5 617.246 307.476 617.037 307.402L606.063 303.531C605.854 303.457 605.67 303.347 605.547 303.199L598.8 295.838C598.678 295.703 598.616 295.556 598.653 295.433L601.909 282.333C601.946 282.21 602.057 282.124 602.229 282.087C602.315 282.075 602.413 282.075 602.512 282.087C602.831 282.124 603.163 282.284 603.347 282.505L619.47 300.483C619.593 300.619 619.642 300.766 619.605 300.877L617.922 307.218C617.885 307.34 617.774 307.426 617.614 307.451V307.463Z" fill="black"/>
</g>
<path d="M596.345 314.282C590.361 314.282 582.987 310.964 578.797 306.11L545.9 268.016C543.332 265.042 542.349 261.933 543.197 259.463C543.91 257.41 545.839 255.997 548.628 255.457L599.909 245.65C606.201 244.446 615.233 248.01 620.062 253.589L652.959 291.696C655.527 294.67 656.511 297.779 655.663 300.236C654.95 302.289 653.021 303.702 650.231 304.242L598.95 314.049C598.127 314.209 597.255 314.282 596.345 314.282ZM602.526 245.859C601.642 245.859 600.794 245.933 599.983 246.093L548.702 255.899C546.072 256.403 544.266 257.718 543.602 259.61C542.804 261.92 543.75 264.87 546.22 267.721L579.117 305.815C583.848 311.296 592.708 314.786 598.852 313.606L650.133 303.8C652.762 303.296 654.569 301.981 655.233 300.089C656.031 297.779 655.073 294.829 652.615 291.978L619.718 253.871C615.602 249.116 608.376 245.847 602.526 245.847V245.859Z" fill="#480688"/>
<path d="M528.794 246.215L600.142 232.575C604.628 231.715 610.121 232.624 615.307 234.762C611.386 233.656 607.466 233.312 604.112 233.951L532.764 247.592C524.1 249.251 522.478 256.845 529.138 264.55L574.914 317.563C578.121 321.275 582.68 324.334 587.51 326.325C581.292 324.58 575.037 320.918 570.944 316.187L525.169 263.174C518.509 255.469 520.131 247.874 528.794 246.215Z" fill="#6EE7FB"/>
<path d="M594.158 325.551L665.506 311.911C674.17 310.252 675.792 302.657 669.131 294.952L623.356 241.939C620.198 238.277 615.725 235.266 610.981 233.275C617.322 234.984 623.737 238.707 627.903 243.524L673.678 296.537C680.339 304.242 678.716 311.837 670.053 313.496L598.705 327.136C594.158 328.009 588.567 327.062 583.32 324.85C587.129 325.87 590.902 326.178 594.146 325.551H594.158Z" fill="#D3088B"/>
</g>
<g style="mix-blend-mode:lighten">
<path d="M623.453 421.698C611.459 421.698 599.355 420.973 587.152 419.498C524.087 411.928 467.006 385.471 426.405 344.98C385.692 304.378 366.411 254.535 372.126 204.631C377.176 160.515 401.618 119.114 440.93 88.0483C491.67 47.9504 560.548 29.7387 629.892 38.0581C661.609 41.8676 691.975 50.9366 720.14 65.0317C747.077 78.5123 770.807 95.9377 790.677 116.828C810.401 137.572 825.184 160.539 834.609 185.067C844.342 210.407 847.82 236.078 844.919 261.355C842.474 282.688 835.556 303.063 824.348 321.914C813.534 340.113 798.96 356.519 781.043 370.675C756.896 389.76 726.875 404.309 694.211 412.788C671.33 418.724 647.65 421.698 623.453 421.698ZM596.922 39.7662C539.927 39.7662 485.255 57.7322 443.228 90.9362C404.69 121.387 380.74 161.915 375.8 205.049C370.221 253.81 389.121 302.571 429.01 342.362C469.022 382.276 525.341 408.365 587.595 415.836C659.508 424.463 729.185 406.951 778.757 367.787C796.318 353.913 810.597 337.84 821.178 320.034C832.115 301.625 838.873 281.742 841.257 260.938C844.084 236.262 840.692 211.181 831.168 186.394C821.915 162.309 807.402 139.771 788.011 119.372C768.435 98.7886 745.049 81.6091 718.494 68.3251C690.709 54.4266 660.762 45.4804 629.462 41.7201C618.587 40.4175 607.711 39.7662 596.934 39.7662H596.922Z" fill="url(#paint13_linear_1_371)"/>
</g>
<g style="mix-blend-mode:lighten">
<path d="M435.769 425.655C423.911 425.655 413.404 424.402 404.482 421.796C391.272 417.95 382.043 411.265 377.042 401.938C364.937 379.364 379.167 343.972 417.115 302.265C454.62 261.036 510.914 218.308 575.651 181.946C680.178 123.219 784.902 93.812 836.244 108.755C849.455 112.601 858.683 119.286 863.685 128.614C875.789 151.188 861.559 186.579 823.611 228.287C786.106 269.515 729.812 312.243 665.075 348.605C578.698 397.133 492.174 425.643 435.769 425.655ZM805.166 108.657C783.759 108.657 757.425 112.81 728.079 120.945C681.112 133.984 629.021 156.189 577.445 185.166C513.052 221.344 457.078 263.813 419.831 304.759C401.803 324.581 389.17 342.928 382.301 359.309C375.321 375.923 374.645 389.686 380.286 400.205C384.796 408.623 393.287 414.706 405.514 418.257C429.416 425.225 467.462 422.153 512.635 409.606C559.602 396.568 611.694 374.362 663.269 345.385C727.662 309.208 783.636 266.738 820.883 225.792C838.911 205.971 851.544 187.624 858.413 171.243C865.393 154.629 866.069 140.865 860.428 130.346C855.918 121.929 847.427 115.846 835.2 112.294C826.819 109.849 816.705 108.644 805.166 108.644V108.657Z" fill="url(#paint14_linear_1_371)"/>
</g>
<defs>
<linearGradient id="paint0_linear_1_371" x1="588.35" y1="167.035" x2="536.231" y2="114.916" gradientUnits="userSpaceOnUse">
<stop stop-color="#D3088B"/>
<stop offset="0.23" stop-color="#D3088B"/>
<stop offset="0.51" stop-color="#6EE0F7"/>
<stop offset="0.78" stop-color="#6EE7FB"/>
<stop offset="1" stop-color="#6EE7FB"/>
</linearGradient>
<linearGradient id="paint1_linear_1_371" x1="596.11" y1="157.19" x2="544.842" y2="105.923" gradientUnits="userSpaceOnUse">
<stop stop-color="#A21FA8"/>
<stop offset="0.06" stop-color="#8A179F"/>
<stop offset="0.15" stop-color="#740F97"/>
<stop offset="0.24" stop-color="#640A91"/>
<stop offset="0.34" stop-color="#5A068E"/>
<stop offset="0.48" stop-color="#58068D"/>
<stop offset="0.57" stop-color="#4F218F"/>
<stop offset="0.75" stop-color="#396896"/>
<stop offset="1" stop-color="#19CFA0"/>
</linearGradient>
<linearGradient id="paint2_linear_1_371" x1="590.427" y1="162.873" x2="539.16" y2="111.606" gradientUnits="userSpaceOnUse">
<stop stop-color="#D3088B"/>
<stop offset="0.23" stop-color="#D3088B"/>
<stop offset="0.51" stop-color="#6EE0F7"/>
<stop offset="0.78" stop-color="#6EE7FB"/>
<stop offset="1" stop-color="#6EE7FB"/>
</linearGradient>
<linearGradient id="paint3_linear_1_371" x1="-920.322" y1="-263.66" x2="-945.653" y2="-301.07" gradientUnits="userSpaceOnUse">
<stop stop-color="#8C139A"/>
<stop offset="0.11" stop-color="#861B9A"/>
<stop offset="0.28" stop-color="#78329B"/>
<stop offset="0.49" stop-color="#61589C"/>
<stop offset="0.73" stop-color="#418D9D"/>
<stop offset="1" stop-color="#19CFA0"/>
</linearGradient>
<linearGradient id="paint4_linear_1_371" x1="645.506" y1="178.21" x2="710.885" y2="225.706" gradientUnits="userSpaceOnUse">
<stop stop-color="#6EE7FB"/>
<stop offset="0.22" stop-color="#6EE7FB"/>
<stop offset="0.49" stop-color="#6EE0F7"/>
<stop offset="0.77" stop-color="#D3088B"/>
<stop offset="1" stop-color="#D3088B"/>
</linearGradient>
<linearGradient id="paint5_linear_1_371" x1="619.603" y1="242.624" x2="721.295" y2="140.932" gradientUnits="userSpaceOnUse">
<stop stop-color="#A21FA8"/>
<stop offset="0.06" stop-color="#8A179F"/>
<stop offset="0.15" stop-color="#740F97"/>
<stop offset="0.24" stop-color="#640A91"/>
<stop offset="0.34" stop-color="#5A068E"/>
<stop offset="0.48" stop-color="#58068D"/>
<stop offset="0.57" stop-color="#4F218F"/>
<stop offset="0.75" stop-color="#396896"/>
<stop offset="1" stop-color="#19CFA0"/>
</linearGradient>
<linearGradient id="paint6_linear_1_371" x1="631.248" y1="254.268" x2="732.94" y2="152.576" gradientUnits="userSpaceOnUse">
<stop stop-color="#D3088B"/>
<stop offset="0.23" stop-color="#D3088B"/>
<stop offset="0.51" stop-color="#6EE0F7"/>
<stop offset="0.78" stop-color="#6EE7FB"/>
<stop offset="1" stop-color="#6EE7FB"/>
</linearGradient>
<linearGradient id="paint7_linear_1_371" x1="-314.945" y1="472.883" x2="-264.629" y2="398.576" gradientUnits="userSpaceOnUse">
<stop stop-color="#8C139A"/>
<stop offset="0.11" stop-color="#861B9A"/>
<stop offset="0.28" stop-color="#78329B"/>
<stop offset="0.49" stop-color="#61589C"/>
<stop offset="0.73" stop-color="#418D9D"/>
<stop offset="1" stop-color="#19CFA0"/>
</linearGradient>
<linearGradient id="paint8_linear_1_371" x1="-308.383" y1="463.186" x2="-270.918" y2="407.869" gradientUnits="userSpaceOnUse">
<stop stop-color="#630691"/>
<stop offset="0.23" stop-color="#5A0D92"/>
<stop offset="0.59" stop-color="#432298"/>
<stop offset="1" stop-color="#2142A0"/>
</linearGradient>
<linearGradient id="paint9_linear_1_371" x1="673.749" y1="379.334" x2="479.769" y2="311.972" gradientUnits="userSpaceOnUse">
<stop stop-color="#D3088B"/>
<stop offset="0.23" stop-color="#D3088B"/>
<stop offset="0.51" stop-color="#6EE0F7"/>
<stop offset="0.78" stop-color="#6EE7FB"/>
<stop offset="1" stop-color="#6EE7FB"/>
</linearGradient>
<linearGradient id="paint10_linear_1_371" x1="681.264" y1="345.22" x2="490.429" y2="278.951" gradientUnits="userSpaceOnUse">
<stop stop-color="#A21FA8"/>
<stop offset="0.06" stop-color="#8A179F"/>
<stop offset="0.15" stop-color="#740F97"/>
<stop offset="0.24" stop-color="#640A91"/>
<stop offset="0.34" stop-color="#5A068E"/>
<stop offset="0.48" stop-color="#58068D"/>
<stop offset="0.57" stop-color="#4F218F"/>
<stop offset="0.75" stop-color="#396896"/>
<stop offset="1" stop-color="#19CFA0"/>
</linearGradient>
<linearGradient id="paint11_linear_1_371" x1="673.919" y1="366.371" x2="483.084" y2="300.102" gradientUnits="userSpaceOnUse">
<stop stop-color="#D3088B"/>
<stop offset="0.23" stop-color="#D3088B"/>
<stop offset="0.51" stop-color="#6EE0F7"/>
<stop offset="0.78" stop-color="#6EE7FB"/>
<stop offset="1" stop-color="#6EE7FB"/>
</linearGradient>
<linearGradient id="paint12_linear_1_371" x1="1174.06" y1="211.146" x2="1065.1" y2="148.123" gradientUnits="userSpaceOnUse">
<stop stop-color="#8C139A"/>
<stop offset="0.11" stop-color="#861B9A"/>
<stop offset="0.28" stop-color="#78329B"/>
<stop offset="0.49" stop-color="#61589C"/>
<stop offset="0.73" stop-color="#418D9D"/>
<stop offset="1" stop-color="#19CFA0"/>
</linearGradient>
<linearGradient id="paint13_linear_1_371" x1="556.348" y1="420.202" x2="678.879" y2="51.5251" gradientUnits="userSpaceOnUse">
<stop offset="0.06"/>
<stop offset="0.28" stop-color="#272F5E"/>
<stop offset="0.29" stop-color="#414871"/>
<stop offset="0.3" stop-color="#6D7292"/>
<stop offset="0.31" stop-color="#9498AF"/>
<stop offset="0.33" stop-color="#B5B8C8"/>
<stop offset="0.34" stop-color="#D0D2DC"/>
<stop offset="0.35" stop-color="#E5E6EB"/>
<stop offset="0.37" stop-color="#F3F4F6"/>
<stop offset="0.39" stop-color="#FCFCFD"/>
<stop offset="0.42" stop-color="white"/>
<stop offset="0.75" stop-color="white"/>
<stop offset="1" stop-color="white"/>
</linearGradient>
<linearGradient id="paint14_linear_1_371" x1="463.974" y1="201.903" x2="579.484" y2="384.217" gradientUnits="userSpaceOnUse">
<stop/>
<stop offset="0.12" stop-color="#272F5E"/>
<stop offset="0.13" stop-color="#343C68"/>
<stop offset="0.2" stop-color="#696F8F"/>
<stop offset="0.26" stop-color="#979BB1"/>
<stop offset="0.32" stop-color="#BCBFCD"/>
<stop offset="0.38" stop-color="#D9DBE3"/>
<stop offset="0.44" stop-color="#EEEFF2"/>
<stop offset="0.51" stop-color="#FAFBFB"/>
<stop offset="0.56" stop-color="white"/>
<stop offset="1" stop-color="white"/>
</linearGradient>
</defs>
</svg>
